<svg width="224" height="168" viewBox="0 0 224 168" fill="none" xmlns="http://www.w3.org/2000/svg">
<g clip-path="url(#clip0_2948_5436)">
<path fill-rule="evenodd" clip-rule="evenodd" d="M155.872 149.436C155.269 145.377 152.92 142.385 148.221 142.385C143.856 142.385 140.838 144.949 140.032 149.436H155.872ZM148.959 161.542C152.649 161.542 155.335 159.975 156.945 158.338L160.907 162.751C158.287 165.53 154.665 167.597 149.027 167.597C139.36 167.597 133.118 160.972 133.118 151.999C133.118 143.096 139.697 136.403 148.152 136.403C157.752 136.403 163.187 143.952 162.717 154.421H140.032C140.838 158.766 143.79 161.542 148.959 161.542Z" fill="white"/>
<path fill-rule="evenodd" clip-rule="evenodd" d="M0 161.216L17.4617 142.885H0.408537V137.132H25.5507V143.002L8.08904 161.336H25.7853V167.086H0V161.216Z" fill="white"/>
<path fill-rule="evenodd" clip-rule="evenodd" d="M52.303 149.436C51.6995 145.377 49.351 142.385 44.6515 142.385C40.2868 142.385 37.2689 144.949 36.4623 149.436H52.303ZM45.3895 161.542C49.0796 161.542 51.7654 159.975 53.3758 158.338L57.3373 162.751C54.7174 165.53 51.0959 167.597 45.4554 167.597C35.7902 167.597 29.5488 160.972 29.5488 151.999C29.5488 143.096 36.1276 136.403 44.583 136.403C54.1823 136.403 59.6172 143.952 59.148 154.421H36.4623C37.2689 158.766 40.2209 161.542 45.3895 161.542Z" fill="white"/>
<path fill-rule="evenodd" clip-rule="evenodd" d="M121.41 151.957C121.41 146.626 117.512 142.251 112.214 142.251C107.032 142.251 103.015 146.506 103.015 151.957C103.015 157.408 107.032 161.723 112.214 161.723C117.512 161.723 121.41 157.348 121.41 151.957ZM96.8477 152.017C96.8477 142.431 103.772 136.441 111.397 136.441C115.24 136.441 118.906 138.179 121.059 140.936V123.259H127.23V166.997H121.059V162.862C118.848 165.799 115.182 167.594 111.339 167.594C103.948 167.594 96.8477 161.546 96.8477 152.017Z" fill="white"/>
<path fill-rule="evenodd" clip-rule="evenodd" d="M166.733 160.645L172.319 157.651C173.892 160.405 176.454 162.024 179.77 162.024C183.262 162.024 185.068 160.168 185.068 158.071C185.068 155.674 181.694 155.134 178.025 154.355C173.075 153.276 167.956 151.598 167.956 145.431C167.956 140.694 172.318 136.322 179.19 136.381C184.601 136.381 188.62 138.599 190.89 142.195L185.708 145.129C184.369 143.031 182.1 141.713 179.19 141.713C175.871 141.713 174.185 143.393 174.185 145.308C174.185 147.466 176.862 148.062 181.053 149.021C185.824 150.103 191.238 151.718 191.238 157.951C191.238 162.084 187.748 167.657 179.48 167.594C173.428 167.594 169.177 165.08 166.733 160.645Z" fill="white"/>
<path fill-rule="evenodd" clip-rule="evenodd" d="M207.991 153.695L203.105 159.206V166.995H196.935V123.259H203.105V151.897L216.199 137.04H223.708L212.356 149.86L224.001 166.995H217.016L207.991 153.695Z" fill="white"/>
<path fill-rule="evenodd" clip-rule="evenodd" d="M78.2069 136.433C70.8717 136.433 64.7305 141.344 64.7305 149.492V166.995H71.0167V150.304C71.0167 145.392 73.7526 142.45 78.4046 142.45C83.0646 142.45 85.3946 145.392 85.3946 150.304V166.995H91.6808V149.492C91.6808 141.344 85.5395 136.433 78.2069 136.433Z" fill="white"/>
</g>
<path fill-rule="evenodd" clip-rule="evenodd" d="M107.322 27.5146V100.097H47.8047L107.322 27.5146Z" fill="white"/>
<path fill-rule="evenodd" clip-rule="evenodd" d="M107.322 0C107.322 16.6025 93.9977 30.06 77.5601 30.06C61.1224 30.06 47.8047 16.6025 47.8047 0H107.322Z" fill="white"/>
<path fill-rule="evenodd" clip-rule="evenodd" d="M117.134 100.1C117.134 83.4975 130.458 70.04 146.895 70.04C163.333 70.04 176.651 83.4975 176.651 100.1H117.134Z" fill="white"/>
<path fill-rule="evenodd" clip-rule="evenodd" d="M117.134 72.5765V0H176.651L117.134 72.5765Z" fill="white"/>
<defs>
<clipPath id="clip0_2948_5436">
<rect width="224" height="45.1449" fill="white" transform="translate(0 122.855)"/>
</clipPath>
</defs>
</svg>
